<svg xmlns="http://www.w3.org/2000/svg" viewBox="0 0 160.99 176.17"><path fill="#fff" fill-rule="evenodd" d="M112.9,64.5H112L64.6,111.9,17.21,159.29,0,176.17l8-4.61c15.86-9.1,32.56-12.27,50.86-12.27h54.73A47.39,47.39,0,0,0,161,111.73C160.91,85.51,139.12,64.5,112.9,64.5Zm-15.43,55a7.6,7.6,0,1,1,7.6-7.59A7.6,7.6,0,0,1,97.47,119.49Zm32.69,0a7.6,7.6,0,1,1,7.6-7.59A7.6,7.6,0,0,1,130.16,119.49Z"/><path fill="#fff" fill-rule="evenodd" d="M153,4.61c-15.86,9.1-32.56,12.27-50.86,12.27H47.39A47.39,47.39,0,0,0,0,64.44c.08,26.22,21.87,47.23,48.09,47.23H49l47.39-47.4,47.39-47.39L161,0Z"/></svg>