<svg id="Layer_1" data-name="Layer 1" xmlns="http://www.w3.org/2000/svg" xmlns:xlink="http://www.w3.org/1999/xlink" viewBox="0 0 160.99 176.17"><defs><style>.cls-1{fill:url(#linear-gradient);}.cls-2{fill:#fff;fill-rule:evenodd;}</style><linearGradient id="linear-gradient" x1="13.75" y1="-9.42" x2="147.24" y2="185.58" gradientUnits="userSpaceOnUse"><stop offset="0" stop-color="#0711db"/><stop offset="1" stop-color="#00c7f6"/></linearGradient></defs><title>Artboard 1 copy 11</title><rect class="cls-1" width="160.99" height="176.17"/><path class="cls-2" d="M112.9,64.5H112L64.6,111.9,17.21,159.29,0,176.17l8-4.61c15.86-9.1,32.56-12.27,50.86-12.27h54.73A47.39,47.39,0,0,0,161,111.73C160.91,85.51,139.12,64.5,112.9,64.5Zm-15.43,55a7.6,7.6,0,1,1,7.6-7.59A7.6,7.6,0,0,1,97.47,119.49Zm32.69,0a7.6,7.6,0,1,1,7.6-7.59A7.6,7.6,0,0,1,130.16,119.49Z"/><path class="cls-2" d="M153,4.61c-15.86,9.1-32.56,12.27-50.86,12.27H47.39A47.39,47.39,0,0,0,0,64.44c.08,26.22,21.87,47.23,48.09,47.23H49l47.39-47.4,47.39-47.39L161,0Z"/></svg>